<svg width="30" height="27" viewBox="0 0 30 27" fill="none" xmlns="http://www.w3.org/2000/svg">
<g clip-path="url(#clip0_162_2193)">
<path d="M0 7.6718V2.92738C0 1.31047 1.20852 0 2.69963 0H8.49919C9.07077 0 9.62729 0.196543 10.0891 0.561669L12.6144 2.55727H27.3006C28.7915 2.55727 30.0003 3.86774 30.0003 5.48464V7.6718H0Z" fill="#E0E0E0"/>
<path d="M27.3004 4.5199H2.69963C1.20867 4.5199 0 5.83053 0 7.44728V24.0729C0 25.6896 1.20867 27.0003 2.69963 27.0003H27.3004C28.7913 27.0003 30 25.6896 30 24.0729V7.44728C30 5.83053 28.7913 4.5199 27.3004 4.5199Z" fill="white"/>
</g>
<defs>
<clipPath id="clip0_162_2193">
<rect width="30" height="27" fill="white"/>
</clipPath>
</defs>
</svg>
