<svg width="27" height="27" viewBox="0 0 27 27" fill="none" xmlns="http://www.w3.org/2000/svg">
<g clip-path="url(#clip0_241_1274)">
<path d="M7.91016 7.91016H19.0898V19.0898H7.91016V7.91016Z" fill="black"/>
<path d="M26.209 11.127C26.6459 11.127 27 10.7729 27 10.3359C27 9.89902 26.6459 9.54492 26.209 9.54492H23.8359V7.96289H26.209C26.6459 7.96289 27 7.60879 27 7.17188C27 6.73496 26.6459 6.38086 26.209 6.38086H23.8359V5.00977C23.8359 3.99195 23.008 3.16406 21.9902 3.16406H20.6191V0.791016C20.6191 0.354103 20.265 0 19.8281 0C19.3912 0 19.0371 0.354103 19.0371 0.791016V3.16406H17.4551V0.791016C17.4551 0.354103 17.101 0 16.6641 0C16.2271 0 15.873 0.354103 15.873 0.791016V3.16406H14.291V0.791016C14.291 0.354103 13.9369 0 13.5 0C13.0631 0 12.709 0.354103 12.709 0.791016V3.16406H11.127V0.791016C11.127 0.354103 10.7729 0 10.3359 0C9.89902 0 9.54492 0.354103 9.54492 0.791016V3.16406H7.96289V0.791016C7.96289 0.354103 7.60879 0 7.17188 0C6.73496 0 6.38086 0.354103 6.38086 0.791016V3.16406H5.00977C3.99195 3.16406 3.16406 3.99195 3.16406 5.00977V6.38086H0.791016C0.354103 6.38086 0 6.73496 0 7.17188C0 7.60879 0.354103 7.96289 0.791016 7.96289H3.16406V9.54492H0.791016C0.354103 9.54492 0 9.89902 0 10.3359C0 10.7729 0.354103 11.127 0.791016 11.127H3.16406V12.709H0.791016C0.354103 12.709 0 13.0631 0 13.5C0 13.9369 0.354103 14.291 0.791016 14.291H3.16406V15.873H0.791016C0.354103 15.873 0 16.2271 0 16.6641C0 17.101 0.354103 17.4551 0.791016 17.4551H3.16406V19.0371H0.791016C0.354103 19.0371 0 19.3912 0 19.8281C0 20.265 0.354103 20.6191 0.791016 20.6191H3.16406V21.9902C3.16406 23.008 3.99195 23.8359 5.00977 23.8359H6.38086V26.209C6.38086 26.6459 6.73496 27 7.17188 27C7.60879 27 7.96289 26.6459 7.96289 26.209V23.8359H9.54492V26.209C9.54492 26.6459 9.89902 27 10.3359 27C10.7729 27 11.127 26.6459 11.127 26.209V23.8359H12.709V26.209C12.709 26.6459 13.0631 27 13.5 27C13.9369 27 14.291 26.6459 14.291 26.209V23.8359H15.873V26.209C15.873 26.6459 16.2271 27 16.6641 27C17.101 27 17.4551 26.6459 17.4551 26.209V23.8359H19.0371V26.209C19.0371 26.6459 19.3912 27 19.8281 27C20.265 27 20.6191 26.6459 20.6191 26.209V23.8359H21.9902C23.008 23.8359 23.8359 23.008 23.8359 21.9902V20.6191H26.209C26.6459 20.6191 27 20.265 27 19.8281C27 19.3912 26.6459 19.0371 26.209 19.0371H23.8359V17.4551H26.209C26.6459 17.4551 27 17.101 27 16.6641C27 16.2271 26.6459 15.873 26.209 15.873H23.8359V14.291H26.209C26.6459 14.291 27 13.9369 27 13.5C27 13.0631 26.6459 12.709 26.209 12.709H23.8359V11.127H26.209ZM20.6719 19.8809C20.6719 20.3178 20.3178 20.6719 19.8809 20.6719H7.11914C6.68223 20.6719 6.32812 20.3178 6.32812 19.8809V7.11914C6.32812 6.68223 6.68223 6.32812 7.11914 6.32812H19.8809C20.3178 6.32812 20.6719 6.68223 20.6719 7.11914V19.8809Z" fill="black"/>
</g>
<defs>
<clipPath id="clip0_241_1274">
<rect width="27" height="27" fill="white"/>
</clipPath>
</defs>
</svg>
