<svg width="9" height="9" viewBox="0 0 9 9" fill="none" xmlns="http://www.w3.org/2000/svg">
<path d="M8.26202 3.66402C8.03087 3.66402 7.84405 3.85131 7.84405 4.082V7.42601C7.84405 7.65631 7.65676 7.84398 7.42607 7.84398H1.57406C1.3433 7.84398 1.15609 7.65631 1.15609 7.42601V1.574C1.15609 1.3437 1.3433 1.15603 1.57406 1.15603H4.91808C5.14922 1.15603 5.33605 0.968742 5.33605 0.738057C5.33605 0.507295 5.14922 0.320007 4.91808 0.320007H1.57406C0.882698 0.320007 0.320068 0.882637 0.320068 1.574V7.42601C0.320068 8.11738 0.882698 8.68001 1.57406 8.68001H7.42607C8.11744 8.68001 8.68007 8.11738 8.68007 7.42601V4.082C8.68007 3.85085 8.49316 3.66402 8.26202 3.66402Z" fill="white"/>
<path d="M3.58593 4.18254C3.56157 4.2069 3.54518 4.2379 3.53823 4.27132L3.29196 5.50312C3.28048 5.5602 3.2986 5.61908 3.33967 5.66054C3.37278 5.69364 3.41736 5.71137 3.46303 5.71137C3.47412 5.71137 3.48567 5.71035 3.49715 5.70793L4.72852 5.46166C4.76264 5.45464 4.79364 5.43831 4.81768 5.41388L7.57369 2.65778L6.34232 1.42644L3.58593 4.18254Z" fill="white"/>
<path d="M8.42486 0.574744C8.08528 0.235095 7.53281 0.235095 7.19349 0.574744L6.71143 1.05682L7.94279 2.28823L8.42486 1.80609C8.58928 1.64204 8.67985 1.42326 8.67985 1.19058C8.67985 0.957894 8.58928 0.739115 8.42486 0.574744Z" fill="white"/>
</svg>
