<svg width="27" height="27" viewBox="0 0 27 27" fill="none" xmlns="http://www.w3.org/2000/svg">
<path d="M25.1131 20.3924L2.017 19.8865C1.50662 19.8765 1.01328 20.0777 0.645176 20.4458C0.277075 20.8139 0.0642648 21.3189 0.0534208 21.8501L0.000481296 24.4449C-0.00517321 24.7077 0.0390442 24.9692 0.130602 25.2143C0.22216 25.4593 0.35926 25.6832 0.534052 25.873C0.708844 26.0629 0.917896 26.2149 1.14924 26.3206C1.38058 26.4262 1.62967 26.4833 1.88224 26.4886L24.9783 26.9996C25.4894 27.0105 25.9838 26.8099 26.3529 26.4417C26.722 26.0735 26.9356 25.5679 26.9467 25.0359L26.9996 22.4412C27.0094 21.9094 26.8163 21.3953 26.4628 21.0114C26.1092 20.6274 25.6239 20.4049 25.1131 20.3924ZM3.10466 23.2126C3.1129 22.9757 3.2104 22.7517 3.37606 22.5891C3.54173 22.4265 3.76225 22.3382 3.98993 22.3435C4.21761 22.3488 4.43415 22.4471 4.59271 22.6172C4.75127 22.7874 4.83911 23.0156 4.83723 23.2527C4.82899 23.4896 4.7315 23.7135 4.56583 23.8762C4.40016 24.0388 4.17964 24.1271 3.95196 24.1218C3.72428 24.1165 3.50775 24.0182 3.34919 23.848C3.19062 23.6779 3.10278 23.4496 3.10466 23.2126ZM22.8559 24.1493L11.0504 23.8888C10.924 23.8843 10.8045 23.8281 10.7176 23.7325C10.6306 23.637 10.5833 23.5096 10.5859 23.3781C10.5884 23.2465 10.6405 23.1212 10.7311 23.0293C10.8216 22.9374 10.9432 22.8863 11.0697 22.887L22.8752 23.1475C23.0015 23.1521 23.121 23.2083 23.2078 23.3039C23.2947 23.3995 23.3419 23.5267 23.3394 23.6583C23.3369 23.7898 23.2848 23.915 23.1943 24.0069C23.1039 24.0987 22.9823 24.1499 22.8559 24.1493Z" fill="black"/>
<path d="M26.0276 19.3004L23.3758 7.15811C23.2686 6.65028 23.0263 6.18411 22.6765 5.81294C22.3267 5.44176 21.8835 5.18057 21.3978 5.05925C21.3912 5.49461 21.4133 13.512 21.3882 14.206C21.0247 17.3154 6.29372 17.3204 5.92014 14.2062C5.91195 14.1735 5.9087 14.1396 5.91052 14.1059V4.85889C5.51829 5.01711 5.16767 5.26985 4.88742 5.59637C4.60717 5.92289 4.40527 6.3139 4.29827 6.73734L1.146 18.7544C1.47499 18.6566 25.7128 19.1886 26.0276 19.3004Z" fill="black"/>
<path d="M13.6541 2.85023C18.0818 2.85023 20.4111 1.8534 20.4352 1.42762C20.4159 1.00184 18.0914 0 13.6541 0C9.21683 0 6.8923 1.00184 6.87305 1.42762C6.89711 1.8534 9.23126 2.85023 13.6541 2.85023Z" fill="black"/>
<path d="M13.654 7.078C18.0576 7.078 20.4351 6.06614 20.4351 5.65038V2.68994C17.1785 4.2592 10.1394 4.26032 6.87291 2.69009C6.87317 3.30217 6.87257 5.07659 6.87291 5.65037C6.87294 6.06614 9.2504 7.078 13.654 7.078Z" fill="black"/>
<path d="M20.4352 6.91766C17.1757 8.48726 10.1413 8.48798 6.87305 6.9178V9.8781C6.87305 10.2939 9.25051 11.3057 13.6541 11.3057C18.0577 11.3057 20.4352 10.2939 20.4352 9.8781V6.91766Z" fill="black"/>
<path d="M6.87305 11.1455V14.1059C6.90192 14.5317 9.24089 15.5286 13.6541 15.5286C18.0674 15.5286 20.4063 14.5317 20.4352 14.1059V11.1455C17.1757 12.7151 10.1414 12.7158 6.87305 11.1455Z" fill="black"/>
</svg>
