<svg width="11" height="12" viewBox="0 0 11 12" fill="none" xmlns="http://www.w3.org/2000/svg">
<g clip-path="url(#clip0_244_1163)">
<path d="M7.11041 6.27054V2.11044C7.11041 1.22244 6.38797 0.5 5.49997 0.5C4.61197 0.5 3.88953 1.22244 3.88953 2.11044V6.27054C3.11197 6.80098 2.63696 7.68937 2.63696 8.63703C2.63696 10.2157 3.92131 11.5 5.49997 11.5C7.07863 11.5 8.36298 10.2157 8.36298 8.63703C8.36298 7.68944 7.88797 6.80098 7.11041 6.27054ZM5.49997 10.7842C4.31597 10.7842 3.35272 9.82099 3.35272 8.63699C3.35272 7.87346 3.7642 7.16097 4.42667 6.77761L4.60528 6.67422V2.11044C4.60528 1.61711 5.00664 1.21575 5.49997 1.21575C5.9933 1.21575 6.39466 1.61711 6.39466 2.11044V6.67422L6.57328 6.77758C7.23571 7.16097 7.64723 7.87346 7.64723 8.63699C7.64723 9.82099 6.68397 10.7842 5.49997 10.7842Z" fill="black"/>
<path d="M6.30424 7.24226L5.85772 6.9838V4.08014C5.85772 3.88277 5.69718 3.72226 5.49985 3.72226C5.30251 3.72226 5.14197 3.88277 5.14197 4.08014V6.9838L4.69545 7.24226C4.19822 7.52995 3.8894 8.0644 3.8894 8.63701C3.8894 9.525 4.61181 10.2474 5.49985 10.2474C6.38784 10.2474 7.11029 9.525 7.11029 8.63701C7.11032 8.0644 6.80144 7.52999 6.30424 7.24226Z" fill="black"/>
</g>
<defs>
<clipPath id="clip0_244_1163">
<rect width="11" height="11" fill="white" transform="translate(0 0.5)"/>
</clipPath>
</defs>
</svg>
