<svg width="31" height="31" viewBox="0 0 31 31" fill="none" xmlns="http://www.w3.org/2000/svg">
<path d="M15.4997 20.7369C14.7052 20.7369 14.0393 21.3992 14.0393 22.1892C14.0393 22.9793 14.7052 23.6415 15.4997 23.6415C16.2649 23.6415 16.96 22.9793 16.925 22.2241C16.96 21.3934 16.2999 20.7369 15.4997 20.7369Z" fill="#167C9F"/>
<path d="M29.0169 25.8839C29.934 24.3096 29.9398 22.4332 29.0285 20.8648L19.8809 5.11031C18.9755 3.52441 17.3399 2.58333 15.5057 2.58333C13.6714 2.58333 12.0359 3.53022 11.1304 5.1045L1.97109 20.8764C1.05982 22.4623 1.06567 24.3503 1.98861 25.9245C2.89987 27.4814 4.52963 28.4167 6.35215 28.4167H24.6241C26.4525 28.4167 28.0939 27.4698 29.0169 25.8839ZM27.0308 24.7453C26.5226 25.6166 25.623 26.1337 24.6183 26.1337H6.34631C5.35327 26.1337 4.45953 25.6283 3.96301 24.7743C3.46065 23.9088 3.45481 22.8747 3.95717 22.0033L13.1165 6.23729C13.613 5.37172 14.5009 4.86052 15.5057 4.86052C16.5045 4.86052 17.3983 5.37753 17.8948 6.2431L27.0483 22.0092C27.539 22.8573 27.5331 23.8797 27.0308 24.7453Z" fill="#167C9F"/>
<path d="M15.1376 10.5419C14.4425 10.7394 14.0103 11.3668 14.0103 12.1278C14.0453 12.5867 14.0745 13.0514 14.1096 13.5104C14.2089 15.2589 14.3082 16.9726 14.4075 18.7212C14.4425 19.3137 14.904 19.7436 15.4998 19.7436C16.0956 19.7436 16.563 19.2847 16.5922 18.6863C16.5922 18.3262 16.5922 17.995 16.6272 17.6291C16.6915 16.5079 16.7616 15.3867 16.8258 14.2656C16.8609 13.5394 16.9251 12.8133 16.9602 12.0871C16.9602 11.8257 16.9251 11.5933 16.8258 11.361C16.5279 10.7104 15.8328 10.3792 15.1376 10.5419Z" fill="#167C9F"/>
</svg>
