<svg width="20" height="20" viewBox="0 0 20 20" fill="none" xmlns="http://www.w3.org/2000/svg">
<path d="M13.5586 9.787L14.0348 10.3664L13.5586 9.787ZM6.14885 9.79645L6.64761 9.23632L6.14885 9.79645ZM11.1396 16.1184L10.7068 15.5059L11.1396 16.1184ZM9.52184 17.2613L9.95459 17.8738L9.52184 17.2613ZM3.43836 7.38295L2.93961 7.94308L3.43836 7.38295ZM16.4922 7.37576L16.016 6.79636L16.4922 7.37576ZM13.3333 6.58333C13.7475 6.58333 14.0833 6.24755 14.0833 5.83333C14.0833 5.41912 13.7475 5.08333 13.3333 5.08333V6.58333ZM6.66667 5.08333C6.25245 5.08333 5.91667 5.41912 5.91667 5.83333C5.91667 6.24755 6.25245 6.58333 6.66667 6.58333V5.08333ZM5.39372 3.25H14.6535V1.75H5.39372V3.25ZM10.7068 15.5059L9.08909 16.6487L9.95459 17.8738L11.5723 16.731L10.7068 15.5059ZM8.25 16.2612V12.78H6.75V16.2612H8.25ZM6.64761 9.23632L3.93712 6.82282L2.93961 7.94308L5.6501 10.3566L6.64761 9.23632ZM16.016 6.79636L13.0823 9.2076L14.0348 10.3664L16.9684 7.95516L16.016 6.79636ZM11.3333 12.8767V14.3181H12.8333V12.8767H11.3333ZM13.0823 9.2076C11.9769 10.1162 11.3333 11.4574 11.3333 12.8767H12.8333C12.8333 11.915 13.269 10.9958 14.0348 10.3664L13.0823 9.2076ZM8.25 12.78C8.25 11.4276 7.66544 10.1426 6.64761 9.23632L5.6501 10.3566C6.35417 10.9835 6.75 11.8634 6.75 12.78H8.25ZM11.5723 16.731C12.3596 16.1748 12.8333 15.2795 12.8333 14.3181H11.3333C11.3333 14.7812 11.1054 15.2243 10.7068 15.5059L11.5723 16.731ZM9.08909 16.6487C8.71138 16.9156 8.25 16.6235 8.25 16.2612H6.75C6.75 17.9202 8.64939 18.7959 9.95459 17.8738L9.08909 16.6487ZM1.75 5.31089C1.75 6.31672 2.1848 7.27098 2.93961 7.94308L3.93712 6.82282C3.49607 6.4301 3.25 5.88088 3.25 5.31089H1.75ZM16.75 5.265C16.75 5.84951 16.4853 6.41061 16.016 6.79636L16.9684 7.95516C17.7774 7.29019 18.25 6.30714 18.25 5.265H16.75ZM14.6535 3.25C15.8321 3.25 16.75 4.17253 16.75 5.265H18.25C18.25 3.30334 16.6191 1.75 14.6535 1.75V3.25ZM5.39372 1.75C3.40203 1.75 1.75 3.32388 1.75 5.31089H3.25C3.25 4.19307 4.18909 3.25 5.39372 3.25V1.75ZM13.3333 5.08333L6.66667 5.08333V6.58333L13.3333 6.58333V5.08333Z" fill="#141416"/>
</svg>
