<svg width="18" height="18" viewBox="0 0 18 18" fill="none" xmlns="http://www.w3.org/2000/svg">
<g clip-path="url(#clip0_18_5049)">
<path d="M3 5.24994H15" stroke="#B3B3B3" stroke-width="1.5" stroke-linecap="round" stroke-linejoin="round"/>
<path d="M7.5 8.25006V12.7501" stroke="#B3B3B3" stroke-width="1.5" stroke-linecap="round" stroke-linejoin="round"/>
<path d="M10.5 8.25006V12.7501" stroke="#B3B3B3" stroke-width="1.5" stroke-linecap="round" stroke-linejoin="round"/>
<path d="M3.75 5.24994L4.5 14.2499C4.5 14.6478 4.65804 15.0293 4.93934 15.3106C5.22064 15.5919 5.60218 15.7499 6 15.7499H12C12.3978 15.7499 12.7794 15.5919 13.0607 15.3106C13.342 15.0293 13.5 14.6478 13.5 14.2499L14.25 5.24994" stroke="#B3B3B3" stroke-width="1.5" stroke-linecap="round" stroke-linejoin="round"/>
<path d="M6.75 5.25V3C6.75 2.80109 6.82902 2.61032 6.96967 2.46967C7.11032 2.32902 7.30109 2.25 7.5 2.25H10.5C10.6989 2.25 10.8897 2.32902 11.0303 2.46967C11.171 2.61032 11.25 2.80109 11.25 3V5.25" stroke="#B3B3B3" stroke-width="1.5" stroke-linecap="round" stroke-linejoin="round"/>
</g>
<defs>
<clipPath id="clip0_18_5049">
<rect width="18" height="18" fill="white"/>
</clipPath>
</defs>
</svg>
