<svg id="Capa_1" enable-background="new 0 0 512 512" height="512" viewBox="0 0 512 512" width="512" xmlns="http://www.w3.org/2000/svg"><g><path d="m241 196h30v60h-30z"/><path d="m361 196h30v60h-30z"/><path d="m0 211h15c8.276 0 15 6.724 15 15.938 0 7.749-6.313 14.062-15 14.062h-15v105h512v-105h-15.938c-7.749 0-14.063-6.313-14.063-15 0-8.276 6.724-15 15-15h15v-105h-511.999zm331-45h90v120h-90zm-120 0h90v120h-90zm-120 0h90v120h-90z"/><path d="m121 196h30v60h-30z"/><path d="m30 376h181v30h-181z"/><path d="m241 376h241v30h-241z"/></g></svg>